<svg xmlns="http://www.w3.org/2000/svg" width="51" height="50" fill="none"><g clip-path="url(#a)"><path fill="#000" fill-rule="evenodd" d="M25.557.521C11.752.521.559 11.757.559 25.621c0 11.088 7.162 20.496 17.098 23.815 1.25.23 1.706-.544 1.706-1.21 0-.596-.022-2.174-.034-4.268-6.955 1.517-8.422-3.365-8.422-3.365-1.136-2.899-2.775-3.67-2.775-3.67-2.27-1.558.172-1.527.172-1.527 2.508.177 3.828 2.587 3.828 2.587 2.231 3.835 5.852 2.728 7.277 2.085.226-1.622.873-2.728 1.587-3.356C15.445 36.08 9.61 33.926 9.61 24.31c0-2.74.973-4.98 2.573-6.736-.258-.636-1.116-3.186.244-6.642 0 0 2.1-.675 6.875 2.573 1.995-.557 4.133-.835 6.26-.846 2.123.01 4.262.289 6.259.846 4.771-3.248 6.867-2.573 6.867-2.573 1.364 3.456.506 6.006.248 6.642 1.603 1.755 2.57 3.995 2.57 6.736 0 9.64-5.845 11.763-11.414 12.384.897.775 1.697 2.306 1.697 4.649 0 3.355-.031 6.061-.031 6.885 0 .67.45 1.452 1.719 1.206 9.926-3.326 17.083-12.727 17.083-23.811C50.559 11.758 39.365.52 25.557.52Z" clip-rule="evenodd"/></g><defs><clipPath id="a"><path fill="#fff" d="M.559 0h50v50h-50z"/></clipPath></defs></svg>