<svg xmlns="http://www.w3.org/2000/svg" width="24" height="25" fill="none"><path fill="#0288D1" d="M22.297 1H2.698C1.759 1 1 1.741 1 2.658v19.68C1 23.254 1.76 24 2.698 24h19.6c.938 0 1.702-.746 1.702-1.658V2.658C24 1.74 23.236 1 22.297 1ZM7.824 20.6H4.41V9.62h3.414V20.6ZM6.117 8.124a1.978 1.978 0 1 1 0-3.954 1.977 1.977 0 0 1 0 3.954Zm14.482 12.474h-3.41v-5.336c0-1.272-.022-2.911-1.774-2.911-1.774 0-2.043 1.388-2.043 2.82V20.6H9.965V9.621h3.27v1.5h.046c.453-.863 1.567-1.775 3.225-1.775 3.454 0 4.092 2.274 4.092 5.23v6.023Z"/></svg>