<svg xmlns="http://www.w3.org/2000/svg" width="81" height="80" fill="none"><g fill="#53C1DE" clip-path="url(#a)"><path d="M45.458 41.578c.963-2.607-.435-5.526-3.124-6.52-2.69-.993-5.65.315-6.613 2.922-.964 2.607.436 5.526 3.124 6.52 2.69.993 5.65-.315 6.613-2.922Z"/><path fill-rule="evenodd" d="M59.64 36.857c2.524-3.671 6.592-10.706 2.977-14.936-3.598-4.21-11.294-1.532-15.487.233-2.04-4.035-6.32-11.115-11.816-10.242-5.473.87-6.804 8.773-7.26 13.238-4.658-.398-12.833-.568-14.726 4.556-1.888 5.11 4.345 10.514 8.118 13.23-2.57 3.71-6.588 10.5-2.987 14.716 3.625 4.242 11.418 1.754 15.652-.032 2.053 4.092 6.14 11.005 11.616 10.135 5.494-.872 7.047-8.721 7.51-13.21 4.506.34 12.749.352 14.613-4.694 1.875-5.075-4.478-10.296-8.21-12.994Zm-6.234 15.281c.093-2.373-.007-4.97-.286-7.717 1.927-1.87 3.643-3.762 5.092-5.619 2.734 1.985 8.702 6.418 7.31 10.188-1.407 3.806-8.56 3.412-12.116 3.148ZM45.282 65.37c-4.085.648-7.432-5.755-8.95-8.77 2.138-1.063 4.373-2.39 6.65-3.939 2.719.747 5.346 1.297 7.791 1.625-.332 3.173-1.387 10.432-5.49 11.084Zm-24.936-9.245c-2.685-3.142 1.262-9.069 3.154-11.801 2.056 1.304 4.401 2.562 6.966 3.746.748 2.615 1.63 5.09 2.61 7.336-2.65 1.118-10.032 3.877-12.73.72Zm-4.69-25.558c1.412-3.82 8.784-3.308 12.22-3.01-.112 2.403-.048 4.984.191 7.658-1.947 1.904-3.7 3.854-5.192 5.777-2.67-1.925-8.63-6.603-7.218-10.425Zm20.103-16.27c4.103-.65 7.66 5.942 9.143 8.866-2.193 1.064-4.452 2.363-6.704 3.857-2.649-.717-5.24-1.254-7.68-1.592.368-3.6 1.143-10.48 5.241-11.13Zm15.743 20.428a56.176 56.176 0 0 1 4.66 2.679 50.354 50.354 0 0 1-3.427 3.907 79.785 79.785 0 0 0-1.233-6.586Zm-5.564-9.345a51.9 51.9 0 0 1 1.822 4.941 75.365 75.365 0 0 0-6.444-2.382c1.56-.963 3.11-1.82 4.622-2.559Zm-15.553 7.672a52.086 52.086 0 0 1-.043-5.215c1.68.238 3.442.575 5.248 1.004a70.35 70.35 0 0 0-5.205 4.21Zm-.716 11.966a54.406 54.406 0 0 1-4.735-2.64 52.951 52.951 0 0 1 3.491-4.014 70.344 70.344 0 0 0 1.244 6.654Zm5.628 9.362a54.535 54.535 0 0 1-1.874-5.019c2.129.88 4.292 1.68 6.485 2.384a51.575 51.575 0 0 1-4.611 2.635Zm15.528-7.832c.134 1.88.173 3.665.113 5.327a54.187 54.187 0 0 1-5.397-1.039 79.65 79.65 0 0 0 5.284-4.288Zm-8.344 3.469a80.386 80.386 0 0 1-9.937-3.65 67.667 67.667 0 0 1-1.902-10.202 67.63 67.63 0 0 1 8.045-6.508 72.213 72.213 0 0 1 9.938 3.673 75.826 75.826 0 0 1 1.907 10.148 75.865 75.865 0 0 1-8.051 6.539Zm18.25-26.57c2.697 3.158-1.31 9.35-3.138 12.011-2.075-1.342-4.392-2.626-6.877-3.81-.735-2.622-1.592-5.076-2.549-7.28 3.074-1.291 9.893-4.046 12.564-.92Z" clip-rule="evenodd"/></g><defs><clipPath id="a"><path fill="#fff" d="m22.238 0 58.158 21.488-21.488 58.157L.75 58.157z"/></clipPath></defs></svg>