<svg xmlns="http://www.w3.org/2000/svg" width="51" height="50" fill="none"><path fill="#764ABC" d="M34.444 33.681a3.303 3.303 0 0 0 2.983-3.401c-.06-1.76-1.551-3.167-3.34-3.167h-.12c-1.85.058-3.28 1.583-3.221 3.401.06.88.417 1.642.954 2.17-2.028 3.93-5.13 6.803-9.782 9.208-3.162 1.641-6.442 2.228-9.723 1.818-2.685-.352-4.772-1.525-6.085-3.46-1.909-2.874-2.087-5.983-.477-9.09 1.134-2.23 2.923-3.872 4.056-4.693-.238-.762-.596-2.052-.775-2.99-8.65 6.157-7.755 14.485-5.13 18.415 1.968 2.932 5.965 4.75 10.38 4.75 1.192 0 2.385-.117 3.578-.41 7.636-1.467 13.422-5.924 16.702-12.55Zm10.499-7.272c-4.534-5.22-11.215-8.093-18.85-8.093h-.954c-.537-1.056-1.67-1.76-2.923-1.76h-.12c-1.849.06-3.28 1.584-3.22 3.402.06 1.76 1.55 3.167 3.34 3.167h.12c1.312-.059 2.445-.88 2.922-1.994h1.074c4.533 0 8.828 1.29 12.706 3.812 2.982 1.935 5.13 4.457 6.322 7.506 1.014 2.464.955 4.868-.12 6.92-1.67 3.109-4.473 4.81-8.171 4.81-2.386 0-4.653-.704-5.846-1.232a35.176 35.176 0 0 1-2.684 2.111c2.565 1.173 5.19 1.819 7.695 1.819 5.726 0 9.962-3.109 11.572-6.217 1.73-3.402 1.61-9.266-2.863-14.251ZM14.64 34.678c.06 1.76 1.551 3.167 3.34 3.167h.12c1.85-.059 3.28-1.584 3.221-3.402-.06-1.76-1.55-3.166-3.34-3.166h-.12c-.119 0-.298 0-.417.058-2.446-3.988-3.46-8.328-3.102-13.02.239-3.518 1.432-6.568 3.52-9.09 1.73-2.17 5.07-3.225 7.337-3.284 6.322-.117 9.006 7.624 9.186 10.733.775.175 2.087.586 2.982.88-.716-9.501-6.68-14.428-12.407-14.428-5.369 0-10.32 3.812-12.288 9.443-2.744 7.506-.955 14.72 2.386 20.408-.298.41-.477 1.056-.418 1.7Z"/></svg>