<svg xmlns="http://www.w3.org/2000/svg" width="51" height="50" fill="none"><g clip-path="url(#a)"><path fill="#C69" d="M42.592 0h-35a7.5 7.5 0 0 0-7.5 7.5v35a7.5 7.5 0 0 0 7.5 7.5h35a7.5 7.5 0 0 0 7.5-7.5v-35a7.5 7.5 0 0 0-7.5-7.5Z"/><path fill="#fff" d="M25.287 8.594c-9.375 3.222-15.43 9.765-14.844 13.672.586 3.906 6.446 7.03 9.082 9.082-3.418 1.757-7.714 4.394-7.617 7.812.196 4.688 5.274 3.223 7.422 1.856 2.149-1.368 4.297-5.176 2.93-9.18 3.027-.781 5.664.195 6.445.781 3.027 2.149 1.465 4.59.39 4.98-1.073.391-.39.587.294.391.683-.195 2.148-1.172 2.148-2.832 0-4.199-4.492-6.152-10.058-4.687-3.223-3.418-7.618-4.98-7.422-8.692.097-1.367.586-4.883 9.277-9.277 8.691-4.395 14.844-2.637 14.063 1.367-1.172 6.055-11.72 10.156-15.43 6.64-.195-.39-.88-.683-.488.391 1.953 4.883 17.773 2.637 18.456-7.714.196-5.47-7.714-6.934-14.648-4.59Zm-8.398 31.25c-2.442.78-2.344-.782-2.246-1.367.292-1.66 1.66-3.711 5.761-5.762 1.172 3.71-1.465 6.543-3.515 7.129Z"/></g><defs><clipPath id="a"><path fill="#fff" d="M.092 0h50v50h-50z"/></clipPath></defs></svg>